#!OML:ASF H:\ManfredETheater\Project 1\Capture day 1\Session 1\subject.ASF
:FULLY-SPECIFIED
:DEGREES
113
root 2.91343 17.5605 -30.8945 -163.81 -6.19891 -191.558
lowerback 9.52181 -3.40311 -11.2664
upperback -3.49666 -6.11531 0.0960314
thorax -7.96715 -2.42706 7.36104
lowerneck -24.3915 -2.48088 -5.31607
upperneck 8.4027 -1.96424 3.62256
head 6.53363 -0.70871 1.80486
rclavicle -4.96962e-016 -1.86858e-014
rhumerus -83.6705 -0.0591597 -78.4177
rradius 82.7255
rwrist -15.2905
rhand -26.6713 14.5319
rfingers 7.12502
rthumb -0.102588 -15.4478
lclavicle -4.96962e-016 -1.86858e-014
lhumerus -29.5335 -17.1584 88.9295
lradius 136.301
lwrist 21.2586
lhand -20.9152 -9.09696
lfingers 7.12502
lthumb 5.4562 20.8128
rfemur -53.7083 -3.46624 9.63946
rtibia 26.9253
rfoot -10.6989 -13.4102
rtoes -34.4863
lfemur 12.1683 -10.1912 -32.015
ltibia 56.1034
lfoot 39.331 -6.16099
ltoes 17.5631
114
root 2.91586 17.5087 -31.5639 -164.196 -6.05224 -191.582
lowerback 9.66782 -3.2909 -11.3025
upperback -3.41774 -5.97455 0.138507
thorax -7.98553 -2.35413 7.41948
lowerneck -24.3075 -2.47386 -5.35505
upperneck 8.20158 -1.90476 3.42226
head 6.4498 -0.696191 1.75221
rclavicle 3.75703e-014 4.45278e-014
rhumerus -82.6012 -0.476459 -78.3551
rradius 82.7552
rwrist -15.2534
rhand -26.4418 14.3368
rfingers 7.12502
rthumb 0.119008 -15.6429
lclavicle 3.75703e-014 4.45278e-014
lhumerus -30.7733 -16.4906 89.3351
lradius 133.844
lwrist 20.8184
lhand -21.2061 -8.83833
lfingers 7.12502
lthumb 5.17535 21.0785
rfemur -53.5796 -3.34917 10.0004
rtibia 27.9846
rfoot -10.9957 -12.8779
rtoes -34.517
lfemur 11.2533 -9.92903 -31.8586
ltibia 60.8107
lfoot 40.3342 -5.99386
ltoes 19.0409
115
root 2.91745 17.4462 -32.2307 -164.67 -5.85288 -191.354
lowerback 9.88033 -3.15139 -11.1341
upperback -3.31519 -5.76709 0.237548
thorax -8.04042 -2.25367 7.42144
lowerneck -24.2552 -2.44462 -5.32676
upperneck 8.03436 -1.83135 3.1855
head 6.38054 -0.677657 1.6787
rclavicle 4.17448e-015 3.10104e-014
rhumerus -81.2812 -0.85745 -78.3771
rradius 82.609
rwrist -15.2788
rhand -26.1912 14.1482
rfingers 7.12502
rthumb 0.361071 -15.8312
lclavicle 4.17448e-015 3.10104e-014
lhumerus -32.0562 -15.7132 89.7788
lradius 131.14
lwrist 20.2643
lhand -21.4999 -8.66079
lfingers 7.12502
lthumb 4.89169 21.2627
rfemur -53.4313 -3.37019 10.8922
rtibia 29.6143
rfoot -11.1225 -11.6794
rtoes -35.0099
lfemur 10.2106 -9.46901 -31.3694
ltibia 65.6063
lfoot 40.7397 -5.95924
ltoes 20.1187
116
root 2.91802 17.3767 -32.8943 -165.234 -5.6135 -190.87
lowerback 10.1872 -2.99246 -10.737
upperback -3.19133 -5.50347 0.389895
thorax -8.14952 -2.1313 7.35203
lowerneck -24.241 -2.38805 -5.22684
upperneck 7.90308 -1.73941 2.92188
head 6.32748 -0.650031 1.58736
rclavicle -1.61016e-014 -1.90833e-014
rhumerus -79.7248 -1.1888 -78.5003
rradius 82.2959
rwrist -15.3288
rhand -25.947 13.942
rfingers 7.12502
rthumb 0.596918 -16.0369
lclavicle -1.61016e-014 -1.90833e-014
lhumerus -33.3324 -14.8246 90.2086
lradius 128.216
lwrist 19.6589
lhand -21.7578 -8.57204
lfingers 7.12502
lthumb 4.64266 21.3571
rfemur -53.1976 -3.45059 12.2062
rtibia 31.6917
rfoot -11.1748 -9.96411
rtoes -35.3398
lfemur 9.06373 -8.82536 -30.5238
ltibia 70.4262
lfoot 40.4894 -6.02622
ltoes 20.5933
117
root 2.91853 17.3032 -33.5544 -165.875 -5.34564 -190.174
lowerback 10.6054 -2.81824 -10.1448
upperback -3.05071 -5.19666 0.580487
thorax -8.32217 -1.99266 7.2144
lowerneck -24.254 -2.31428 -5.06579
upperneck 7.78618 -1.64163 2.65225
head 6.28291 -0.617682 1.48518
rclavicle 2.72335e-014 7.15625e-015
rhumerus -77.9487 -1.47468 -78.7338
rradius 81.8154
rwrist -15.343
rhand -25.7576 13.7538
rfingers 7.12502
rthumb 0.779886 -16.2245
lclavicle 2.72335e-014 7.15625e-015
lhumerus -34.5694 -13.839 90.5987
lradius 125.094
lwrist 19.0201
lhand -21.9757 -8.54715
lfingers 7.12502
lthumb 4.43228 21.3865
rfemur -52.8243 -3.45258 13.7366
rtibia 34.1225
rfoot -11.3289 -7.92657
rtoes -35.828
lfemur 7.81251 -8.03124 -29.3495
ltibia 75.2119
lfoot 39.6615 -6.13799
ltoes 20.5666
118
root 2.92011 17.2308 -34.211 -166.587 -5.06078 -189.295
lowerback 11.131 -2.62648 -9.38106
upperback -2.89435 -4.84454 0.804074
thorax -8.55427 -1.83753 7.01258
lowerneck -24.2406 -2.24262 -4.88267
upperneck 7.63907 -1.55699 2.40142
head 6.2255 -0.588646 1.38426
rclavicle -2.04748e-014 4.77083e-015
rhumerus -75.9759 -1.72711 -79.0638
rradius 81.1686
rwrist -15.2848
rhand -25.6508 13.5928
rfingers 7.12502
rthumb 0.88298 -16.3852
lclavicle -2.04748e-014 4.77083e-015
lhumerus -35.7384 -12.7868 90.9432
lradius 121.782
lwrist 18.3797
lhand -22.1612 -8.57146
lfingers 7.12502
lthumb 4.25312 21.3658
rfemur -52.2793 -3.28335 15.3434
rtibia 36.8395
rfoot -11.4028 -6.00085
rtoes -35.7532
lfemur 6.4524 -7.11835 -27.8602
ltibia 79.9082
lfoot 38.3891 -6.29206
ltoes 20.1476
119
root 2.92404 17.1611 -34.8634 -167.33 -4.77331 -188.203
lowerback 11.7361 -2.42282 -8.41564
upperback -2.72726 -4.44251 1.07271
thorax -8.83404 -1.66734 6.73655
lowerneck -24.2153 -2.18444 -4.68821
upperneck 7.45029 -1.49585 2.17544
head 6.15413 -0.566983 1.2871
rclavicle -2.60408e-014 -1.98785e-014
rhumerus -73.8027 -1.94683 -79.4892
rradius 80.3723
rwrist -15.1471
rhand -25.6388 13.4446
rfingers 7.12502
rthumb 0.894629 -16.5333
lclavicle -2.60408e-014 -1.98785e-014
lhumerus -36.8107 -11.685 91.2254
lradius 118.295
lwrist 17.7939
lhand -22.3048 -8.65566
lfingers 7.12502
lthumb 4.11448 21.2844
rfemur -51.5183 -2.87118 17.0235
rtibia 39.6652
rfoot -11.3356 -4.43956
rtoes -34.6277
lfemur 4.92802 -6.1203 -25.994
ltibia 84.4671
lfoot 36.8148 -6.52607
ltoes 19.5981
120
root 2.93094 17.0944 -35.5107 -168.062 -4.48918 -186.891
lowerback 12.3722 -2.21021 -7.24355
upperback -2.55769 -3.9856 1.3942
thorax -9.13911 -1.48317 6.38459
lowerneck -24.1575 -2.15155 -4.50394
upperneck 7.19784 -1.46791 1.97887
head 6.05892 -0.557302 1.19755
rclavicle -1.31198e-014 -1.19271e-014
rhumerus -71.4391 -2.12075 -79.9991
rradius 79.4582
rwrist -14.946
rhand -25.7098 13.2889
rfingers 7.12502
rthumb 0.825999 -16.6893
lclavicle -1.31198e-014 -1.19271e-014
lhumerus -37.7852 -10.5486 91.4415
lradius 114.656
lwrist 17.2933
lhand -22.4141 -8.78556
lfingers 7.12502
lthumb 4.0089 21.1565
rfemur -50.5784 -2.18955 18.7896
rtibia 42.5751
rfoot -11.4357 -3.39332
rtoes -32.6585
lfemur 3.1776 -5.05845 -23.728
ltibia 88.8955
lfoot 34.9826 -6.97371
ltoes 18.9924
121
root 2.94322 17.0531 -36.1585 -168.743 -4.22373 -185.412
lowerback 13.0169 -1.99739 -5.92196
upperback -2.39773 -3.49177 1.76471
thorax -9.45968 -1.29328 5.98475
lowerneck -24.0884 -2.13716 -4.32883
upperneck 6.89186 -1.46041 1.79424
head 5.94567 -0.554727 1.11134
rclavicle 4.57205e-015 -2.46493e-014
rhumerus -68.8958 -2.20654 -80.5877
rradius 78.4621
rwrist -14.7226
rhand -25.835 13.1075
rfingers 7.12502
rthumb 0.705061 -16.8711
lclavicle 4.57205e-015 -2.46493e-014
lhumerus -38.6911 -9.39657 91.6068
lradius 110.917
lwrist 16.9686
lhand -22.5823 -8.93188
lfingers 7.12502
lthumb 3.84644 21.0131
rfemur -49.3249 -1.31685 20.6478
rtibia 45.352
rfoot -11.7752 -3.01654
rtoes -29.8381
lfemur 1.14916 -3.97024 -21.1178
ltibia 93.0817
lfoot 33.0212 -7.67261
ltoes 18.4645
